<?xml version="1.0" encoding="UTF-8"?><svg id="Ebene_1" xmlns="http://www.w3.org/2000/svg" viewBox="0 0 1293.43 509.31"><defs><style>.cls-1{fill:#454545;}.cls-1,.cls-2{stroke-width:0px;}.cls-2{fill:#ffec55;}</style></defs><path class="cls-1" d="M858,148.41V.08h34.36c.1,1.18.29,2.48.29,3.79.01,69.62.08,139.25-.02,208.87-.05,33.17-13.68,59.58-41.3,77.96-39.15,26.05-92.01,16.66-120.74-20.83-37.78-49.31-16.51-120.5,42.46-140.87,23.88-8.25,47.48-7.46,69.32,6.84,5.39,3.53,10.11,8.09,15.62,12.57ZM745.83,214.63c-.34,31.19,23.21,56.42,54.03,57.57,33.26,1.23,58.58-24.24,58.79-56.95.21-32.89-24.1-57.89-56.3-58.05-31.86-.15-56.37,24.75-56.52,57.43Z"/><path class="cls-1" d="M38.43,148.06c6.37-4.86,12.02-10.05,18.47-13.92,21.04-12.63,43.59-13.19,66.06-5.22,34.67,12.29,55.31,37.3,60.93,73.61,7.13,46.11-24.59,90.81-70.55,100.8-52.34,11.38-103.48-25.71-108.82-78.98-.44-4.34-.42-8.74-.42-13.11-.04-68.63-.05-137.25-.07-205.88,0-1.71,0-3.42,0-5.35h34.4v148.06ZM94.21,272.15c28.13.83,56.26-21.52,56.38-57.44.11-32.58-24.55-57.61-56.41-57.52-32,.09-56.26,24.92-56.43,57.58-.18,33.92,26.99,58.23,56.46,57.38Z"/><path class="cls-1" d="M572.61,254.69c-16.42,34.33-62.76,63.58-113,45.32-43.87-15.94-68.42-62.53-55.94-109.23,12.04-45.04,55.78-74.94,104.71-64.78,46.33,9.62,78.19,51.02,70.79,100.96h-141.81c.43,8.74,3.1,16.16,7.72,22.74,12.6,17.96,30.37,24.1,51.61,22.06,13.18-1.26,24.48-6.45,33.96-15.69.79-.77,2.16-1.33,3.26-1.33,12.74-.09,25.48-.06,38.7-.06ZM543.34,199.21c-3.58-20.3-25.63-43.07-54.46-42.02-24.8.91-50.15,21.51-51.13,42.02h105.59Z"/><path class="cls-1" d="M239.48,227.1c.96,10.49,4.51,19.26,10.91,26.75,12.78,14.95,29.39,19.8,48.46,17.95,13.16-1.28,24.51-6.35,33.96-15.67.79-.78,2.15-1.36,3.25-1.37,12.74-.09,25.49-.06,39.1-.06-1.23,2.32-2.02,4.08-3.05,5.69-16.44,25.75-39.55,41.25-70.12,44.56-48.48,5.25-92.29-29.6-98.29-77.82-5.07-40.75,14.44-77.32,51.43-95,22.03-10.53,45.13-11,67.79-2.56,32.73,12.19,53.24,35.34,58.48,70.53,1.09,7.34.5,14.93.71,22.4.1,3.61-1.38,4.72-5.14,4.7-43.99-.15-87.98-.1-131.97-.1-1.6,0-3.21,0-5.51,0ZM239.89,199.06h105.69c-4.61-22.04-26.86-42.68-54.05-41.87-25.1.75-49.4,20.3-51.65,41.87Z"/><path class="cls-1" d="M1002.83,306.93c-50.38,0-91.38-40.9-91.46-91.21-.08-50.7,40.94-91.6,91.83-91.57,50.47.04,90.92,40.78,90.86,91.51-.07,50.6-40.72,91.27-91.23,91.27ZM1003.08,272.15c31.73.06,56.42-24.98,56.39-57.21-.04-32.84-24.24-57.72-56.19-57.75-31.77-.03-56.82,24.77-56.96,56.42-.15,33.09,24.47,58.48,56.77,58.54Z"/><path class="cls-1" d="M1202.04,306.93c-50.4.03-91.31-41.03-91.36-91.7-.05-50.27,40.81-90.96,91.48-91.07,50.62-.12,91.29,40.86,91.27,91.97-.02,49.97-41.1,90.78-91.39,90.81ZM1258.51,214.96c.03-33.02-23.87-57.7-55.93-57.77-31.94-.07-56.51,24.75-57.03,56.61-.52,32.17,25.02,57.72,54.92,58.45,35.58.87,58.48-28,58.04-57.28Z"/><path class="cls-1" d="M598.58,232.01v-32.41h94.74v32.41h-94.74Z"/><path class="cls-1" d="M136.93,498.48v-49.06h5.28c.1,1.29.29,2.71.29,4.14.02,16.5.05,33-.05,49.5,0,1.5-.75,4.2-1.43,4.29-2.49.33-5.23,1.28-7.3-1.83-9.66-14.57-19.54-29-29.34-43.48-.89-1.32-1.81-2.61-3.5-3.76v49.03h-5.63v-57.71c4.43-1.2,7.35-.24,10.01,3.85,9.27,14.23,19.02,28.15,28.58,42.18.73,1.07,1.49,2.11,2.23,3.17.28-.1.57-.21.85-.31Z"/><path class="cls-1" d="M445.34,455.57c-1.22,1.28-2.32,2.43-3.62,3.79-4.91-4.34-10.4-6.8-16.99-6.75-12.46.09-22.94,9.02-24.52,21.4-1.14,8.98.69,17.09,7.39,23.73,8.87,8.8,22.55,7.33,31.21,3.72.88-.37,1.79-1.84,1.83-2.84.19-4.61.23-9.25-.03-13.86-.05-.92-1.61-2.42-2.57-2.5-3.56-.3-7.16-.12-10.97-.12v-4.64c5.88,0,11.7-.07,17.51.11.55.02,1.5,1.54,1.51,2.38.12,7.25.14,14.49,0,21.74-.02.99-.89,2.4-1.76,2.87-12.19,6.59-31.22,7.27-42.32-4.63-8.51-9.12-10.57-25.04-4.43-36.75,5.63-10.73,18.5-17.02,30.97-15.3,6.31.87,12.12,2.64,16.8,7.65Z"/><path class="cls-1" d="M874.56,448.81c8.51.41,16.88.37,25.12,1.35,6.71.8,11.02,6.43,11.34,13.04.37,7.65-3.36,13.36-10.23,15.6-1.39.45-2.82.79-4.61,1.28,5.64,9.19,11.09,18.07,16.65,27.12-4.4,1.17-7.09.34-9.17-3.69-3.36-6.54-7.58-12.64-11.07-19.12-1.7-3.15-3.66-4.76-7.31-4.19-1.68.26-3.42.04-5.6.04v27.13h-5.11v-58.55ZM879.92,476.06c6.69-.69,12.96-.8,18.96-2.12,4.72-1.04,6.93-5.12,6.75-9.61-.18-4.59-2.6-8.37-7.35-9.21-5.93-1.04-12.03-1.04-18.36-1.52v22.46Z"/><path class="cls-1" d="M323.08,480.09c5.61,9.12,11.05,17.99,16.64,27.08-4.27,1.08-6.94.53-8.99-3.4-3.7-7.07-8-13.82-12.07-20.69-1.42-2.4-9.18-4.23-11.26-2.47-.66.56-.79,1.99-.8,3.03-.07,6.5-.04,12.99-.04,19.49,0,1.34,0,2.68,0,4.26h-5.1v-58.57c8.52.41,16.88.38,25.12,1.35,6.67.78,11.07,6.48,11.37,13.01.35,7.66-3.35,13.33-10.21,15.6-1.4.46-2.83.81-4.66,1.32ZM306.58,475.37c4.83,0,9.05.03,13.28-.02,1.11-.01,2.24-.18,3.32-.43,6.32-1.41,9.56-5.19,9.28-10.77-.27-5.49-4.01-9.28-10.29-9.85-4.33-.39-8.71-.34-13.06-.23-.86.02-2.4,1.17-2.42,1.84-.19,6.32-.11,12.64-.11,19.45Z"/><path class="cls-1" d="M1131.44,478.73c.66-7.73,2.48-14.73,7.1-20.87,10.22-13.58,30.33-13.66,40.16.2,8.24,11.62,8.71,24.3,2.46,36.88-4.94,9.96-13.41,15.02-24.72,14.13-10.69-.84-17.7-7.1-21.62-16.66-1.76-4.3-2.29-9.11-3.38-13.68ZM1180.71,477.66c-1.32-4.5-2.15-9.22-4.09-13.44-3.39-7.39-9.47-11.46-17.77-11.54-8.3-.08-14.39,3.91-18.04,11.17-4.63,9.2-4.75,18.75-.56,28.16,7.11,15.95,26.57,14.47,33.71,5.08,4.33-5.7,6.09-12.17,6.74-19.44Z"/><path class="cls-1" d="M813.03,478.51c-.13,6.28-1.44,12.17-4.68,17.55-5.24,8.7-12.76,13.47-23.14,13.07-9.92-.38-16.95-5.49-21.43-14.01-5.59-10.63-5.59-21.63-.46-32.39,5.01-10.51,15.13-16.19,25.38-14.88,11.77,1.51,20.59,9.75,23.14,21.8.62,2.91.8,5.91,1.19,8.86ZM808.48,478.99c-.72-6.37-2.08-12.14-5.49-17.29-7.8-11.79-24.61-12.33-32.66-.72-6.89,9.95-7.07,20.84-2.05,31.66,3.51,7.55,9.75,11.71,18.16,11.67,8.4-.04,14.62-4.26,18.02-11.85,1.9-4.24,2.71-8.96,4.01-13.47Z"/><path class="cls-1" d="M7.26,454.1v20.4h28.11v5.09H7.44v23.16h30.92v4.65H1.71v-58.04h35.58v4.73H7.26Z"/><path class="cls-1" d="M206,449.36h35.68v4.7h-30.24v20.52h28.01v5.16c-5.31,0-10.65-.07-15.98.02-3.95.07-9.41-1.12-11.42.95-2.05,2.11-.76,7.52-.84,11.49-.07,3.36-.01,6.72-.01,10.55h31.28c.09,1.73.15,3.01.25,4.9-2.61,0-4.93,0-7.26,0-8.87,0-17.74-.03-26.62.02-1.98.01-3.31-.19-3.3-2.75.08-17.99.05-35.99.08-53.99,0-.47.22-.95.37-1.56Z"/><path class="cls-1" d="M1290.9,449.44c-.39,14.63-.16,29.11-1.38,43.47-.83,9.77-8.72,15.66-18.64,16.12-15,.69-23.38-6.77-23.78-21.82-.33-12.47-.07-24.95-.07-37.72h5.15c.06,1.28.18,2.61.18,3.94.02,9.74-.02,19.48.03,29.22.01,2.36.2,4.74.51,7.09,1.27,9.49,7.08,14.54,16.38,14.37,8.75-.16,14.9-5.81,15.3-15.13.49-11.47.26-22.97.34-34.45.01-1.61,0-3.22,0-5.08h5.97Z"/><path class="cls-1" d="M703.08,449.18v4.91h-29.03v20.66h26.85v4.96h-26.97v27.65c-2.02.09-3.67.17-5.58.25v-58.43c5.7,0,11.39,0,17.09,0s11.46,0,17.63,0Z"/><path class="cls-1" d="M1060.7,507.47h-5.61c0-7.11.17-14.08-.1-21.02-.09-2.33-.83-4.92-2.07-6.89-6.32-10-12.91-19.84-19.46-29.82q6.28-1.29,9.43,3.84c4.86,7.85,9.74,15.67,14.98,24.09,1-1.4,1.79-2.4,2.47-3.47,4.33-6.86,8.87-13.61,12.85-20.67,2.11-3.74,4.61-5.2,9.07-3.99-1.16,1.81-2.26,3.57-3.4,5.3-4.93,7.52-9.75,15.12-14.88,22.49-2.39,3.44-3.56,6.89-3.36,11.11.3,6.21.08,12.45.08,19.03Z"/><path class="cls-1" d="M524.79,507.43h-5.47c0-5.6-.3-11.07.08-16.49.41-5.79-1.22-10.56-4.56-15.28-5.98-8.42-11.43-17.22-17.16-25.95,6.23-1.24,6.28-1.22,9.41,3.81,4.94,7.94,9.88,15.88,15.13,24.32,2.78-4.39,5.31-8.36,7.82-12.34,2.53-4.01,5.27-7.92,7.5-12.09,1.91-3.58,4.31-5.29,8.81-3.78-.62,1.03-1.24,2.14-1.93,3.2-5.89,8.98-11.88,17.9-17.6,26.98-1.18,1.87-1.85,4.34-1.93,6.56-.24,6.85-.09,13.71-.09,21.06Z"/><rect class="cls-2" y="358.81" width="1293.43" height="25.72"/></svg>